<?xml version="1.0" encoding="utf-8"?>
<svg width="30" height="32" style="display:block" xmlns="http://www.w3.org/2000/svg" xmlnsBx="https://boxy-svg.com">
  <defs>
    <linearGradient id="gradient-1" bxPinned="true"/>
    <linearGradient id="gradient-2" bxPinned="true">
      <stop offset="0" style="stop-color: rgb(230, 207, 33);"/>
      <stop offset="1" style="stop-color: rgb(145, 130, 16);"/>
    </linearGradient>
  </defs>
  <ellipse style="stroke: rgb(0, 0, 0); fill: rgb(33, 33, 33);" cx="14.924" cy="16.037" rx="4.75" ry="2.93"/>
  <path d="M 29.386 22.71 C 29.243 22.307 29.075 21.918 28.916 21.557 C 28.67 21.001 28.413 20.445 28.164 19.907 L 28.144 19.864 C 25.926 15.059 23.544 10.188 21.066 5.387 L 20.961 5.183 C 20.708 4.693 20.447 4.186 20.178 3.688 C 19.86 3.057 19.475 2.464 19.028 1.917 C 18.525 1.317 17.896 0.834 17.185 0.503 C 16.475 0.171 15.701 0 14.917 0 C 14.133 0 13.358 0.172 12.648 0.503 C 11.938 0.835 11.309 1.317 10.806 1.918 C 10.36 2.465 9.974 3.059 9.656 3.689 C 9.385 4.191 9.121 4.703 8.866 5.198 L 8.769 5.387 C 6.291 10.188 3.909 15.059 1.69 19.864 L 1.658 19.934 C 1.413 20.463 1.161 21.01 0.919 21.556 C 0.759 21.917 0.592 22.307 0.448 22.71 C 0.037 23.81 -0.094 24.995 0.067 26.158 C 0.238 27.334 0.713 28.445 1.446 29.38 C 2.179 30.316 3.144 31.044 4.246 31.493 C 5.078 31.83 5.968 32.002 6.866 32 C 7.148 32 7.43 31.984 7.71 31.951 C 8.846 31.806 9.941 31.437 10.932 30.864 C 12.232 30.134 13.515 29.064 14.917 27.535 C 16.319 29.064 17.603 30.134 18.903 30.864 C 19.893 31.437 20.989 31.806 22.124 31.951 C 22.405 31.984 22.686 32 22.969 32 C 23.866 32.002 24.756 31.83 25.588 31.493 C 26.69 31.044 27.655 30.316 28.389 29.38 C 29.122 28.445 29.597 27.334 29.768 26.158 C 29.929 24.995 29.798 23.81 29.386 22.71 Z M 14.917 24.377 C 13.182 22.177 12.068 20.134 11.677 18.421 C 11.517 17.779 11.479 17.113 11.566 16.457 C 11.634 15.977 11.811 15.518 12.082 15.115 C 12.416 14.681 12.846 14.33 13.337 14.089 C 13.829 13.847 14.37 13.722 14.918 13.722 C 15.466 13.722 16.006 13.848 16.498 14.089 C 16.989 14.331 17.419 14.682 17.753 15.115 C 18.024 15.518 18.201 15.977 18.269 16.458 C 18.356 17.114 18.318 17.78 18.157 18.422 C 17.766 20.135 16.653 22.177 14.917 24.377 Z M 27.741 25.869 C 27.621 26.691 27.289 27.467 26.776 28.122 C 26.264 28.776 25.589 29.285 24.818 29.599 C 24.039 29.911 23.194 30.022 22.361 29.92 C 21.495 29.809 20.66 29.524 19.907 29.082 C 18.75 28.432 17.579 27.435 16.261 25.971 C 18.359 23.385 19.669 21 20.154 18.877 C 20.372 17.984 20.42 17.058 20.294 16.148 C 20.179 15.363 19.888 14.615 19.442 13.959 C 18.919 13.252 18.238 12.677 17.452 12.28 C 16.666 11.884 15.798 11.678 14.918 11.678 C 14.037 11.678 13.169 11.884 12.383 12.28 C 11.597 12.676 10.916 13.251 10.393 13.959 C 9.947 14.614 9.656 15.362 9.541 16.146 C 9.415 17.057 9.462 17.982 9.68 18.875 C 10.165 20.999 11.475 23.384 13.573 25.971 C 12.256 27.435 11.085 28.432 9.928 29.082 C 9.175 29.524 8.34 29.809 7.474 29.92 C 6.641 30.022 5.795 29.911 5.016 29.599 C 4.246 29.285 3.571 28.776 3.058 28.122 C 2.546 27.467 2.213 26.691 2.094 25.869 C 1.979 25.033 2.077 24.182 2.378 23.395 C 2.493 23.073 2.627 22.757 2.793 22.382 C 3.027 21.851 3.277 21.311 3.518 20.79 L 3.55 20.72 C 5.756 15.942 8.125 11.098 10.589 6.323 L 10.688 6.133 C 10.938 5.646 11.198 5.143 11.46 4.656 C 11.71 4.155 12.013 3.682 12.364 3.244 C 12.675 2.869 13.065 2.567 13.506 2.359 C 13.947 2.152 14.429 2.044 14.917 2.044 C 15.405 2.044 15.887 2.152 16.328 2.359 C 16.769 2.567 17.159 2.869 17.47 3.244 C 17.821 3.681 18.124 4.154 18.374 4.655 C 18.634 5.137 18.891 5.636 19.14 6.119 L 19.245 6.323 C 21.71 11.098 24.078 15.941 26.285 20.72 L 26.305 20.763 C 26.55 21.294 26.803 21.842 27.042 22.382 C 27.208 22.758 27.342 23.074 27.457 23.394 C 27.758 24.182 27.855 25.033 27.741 25.869 Z" fill="#FF385C"/>
  <path d="M 29.386 22.71 C 29.243 22.307 29.075 21.918 28.916 21.557 C 28.67 21.001 28.413 20.445 28.164 19.907 L 28.144 19.864 C 25.925 15.059 23.544 10.188 21.066 5.387 L 20.961 5.183 C 20.708 4.693 20.447 4.186 20.178 3.688 C 19.86 3.058 19.474 2.464 19.028 1.917 C 18.524 1.317 17.896 0.834 17.185 0.503 C 16.475 0.171 15.7 0 14.916 0 C 14.132 0 13.358 0.172 12.648 0.503 C 11.938 0.835 11.309 1.317 10.806 1.918 C 10.359 2.465 9.974 3.059 9.656 3.689 C 9.385 4.191 9.121 4.703 8.866 5.198 L 8.769 5.387 C 6.291 10.188 3.909 15.059 1.69 19.864 L 1.658 19.934 C 1.413 20.463 1.161 21.01 0.919 21.556 C 0.759 21.917 0.592 22.307 0.448 22.71 C 0.037 23.81 -0.094 24.995 0.067 26.159 C 0.238 27.334 0.713 28.445 1.446 29.38 C 2.179 30.316 3.144 31.044 4.246 31.493 C 5.078 31.83 5.968 32.002 6.866 32 C 7.148 32 7.43 31.984 7.71 31.951 C 8.846 31.806 9.941 31.437 10.932 30.864 C 12.232 30.134 13.515 29.064 14.917 27.535 C 16.319 29.064 17.603 30.134 18.902 30.864 C 19.893 31.437 20.989 31.806 22.124 31.951 C 22.404 31.984 22.686 32 22.968 32 C 23.866 32.002 24.756 31.83 25.588 31.493 C 26.69 31.044 27.655 30.316 28.388 29.38 C 29.122 28.445 29.597 27.334 29.768 26.159 C 29.929 24.995 29.798 23.81 29.386 22.71 Z M 14.917 24.377 C 13.182 22.177 12.068 20.134 11.677 18.421 C 11.517 17.779 11.479 17.113 11.566 16.457 C 11.634 15.977 11.81 15.518 12.082 15.115 C 12.416 14.681 12.846 14.33 13.337 14.089 C 13.829 13.848 14.37 13.722 14.917 13.722 C 15.465 13.722 16.006 13.848 16.498 14.089 C 16.989 14.331 17.419 14.682 17.753 15.115 C 18.024 15.518 18.201 15.977 18.269 16.458 C 18.356 17.114 18.318 17.78 18.157 18.422 C 17.766 20.135 16.653 22.177 14.917 24.377 Z M 27.741 25.869 C 27.621 26.691 27.289 27.467 26.776 28.122 C 26.264 28.776 25.589 29.285 24.818 29.599 C 24.039 29.911 23.194 30.022 22.361 29.921 C 21.495 29.809 20.66 29.524 19.907 29.082 C 18.75 28.433 17.579 27.435 16.261 25.971 C 18.359 23.385 19.669 21.001 20.154 18.877 C 20.372 17.984 20.42 17.058 20.293 16.148 C 20.179 15.363 19.888 14.615 19.442 13.959 C 18.919 13.252 18.238 12.677 17.452 12.281 C 16.666 11.884 15.798 11.678 14.917 11.678 C 14.037 11.678 13.169 11.884 12.383 12.28 C 11.597 12.677 10.915 13.252 10.393 13.959 C 9.947 14.614 9.656 15.362 9.541 16.147 C 9.415 17.057 9.462 17.982 9.68 18.875 C 10.165 20.999 11.475 23.384 13.573 25.971 C 12.255 27.435 11.084 28.433 9.928 29.083 C 9.175 29.524 8.34 29.809 7.474 29.921 C 6.641 30.022 5.795 29.911 5.016 29.599 C 4.246 29.285 3.571 28.776 3.058 28.122 C 2.546 27.467 2.213 26.691 2.094 25.869 C 1.979 25.033 2.077 24.183 2.378 23.395 C 2.493 23.073 2.627 22.757 2.793 22.382 C 3.027 21.851 3.277 21.312 3.518 20.79 L 3.55 20.72 C 5.756 15.942 8.125 11.098 10.589 6.323 L 10.687 6.133 C 10.938 5.646 11.198 5.143 11.46 4.656 C 11.71 4.155 12.013 3.682 12.364 3.244 C 12.675 2.869 13.065 2.567 13.506 2.359 C 13.947 2.152 14.429 2.044 14.917 2.044 C 15.405 2.044 15.887 2.152 16.328 2.359 C 16.769 2.567 17.159 2.869 17.47 3.244 C 17.821 3.681 18.124 4.154 18.374 4.655 C 18.634 5.137 18.891 5.636 19.14 6.119 L 19.245 6.323 C 21.71 11.098 24.078 15.942 26.285 20.72 L 26.305 20.763 C 26.55 21.294 26.803 21.842 27.042 22.382 C 27.208 22.758 27.342 23.074 27.457 23.394 C 27.758 24.182 27.855 25.033 27.741 25.869 Z" fill="#FF385C" transform="matrix(-1, 0.000001, -0.000001, -1, 29.834996, 32.000004)"/>
  <ellipse style="paint-order: stroke; stroke: rgba(159, 0, 0, 0.8); fill: rgba(255, 87, 87, 0.67);" cx="15" cy="16" rx="1.5" ry="1.5"/>
</svg>
