<?xml version="1.0" encoding="UTF-8" standalone="no"?>
<svg
   id="svg48"
   version="1.1"
   style="display:block"
   height="32"
   width="102"
   xmlns:xlink="http://www.w3.org/1999/xlink"
   xmlns="http://www.w3.org/2000/svg"
   xmlns:svg="http://www.w3.org/2000/svg">
  <defs
     id="defs52">
    <linearGradient
       id="linearGradient1656">
      <stop
         style="stop-color:#ff0000;stop-opacity:1;"
         offset="0.00643087"
         id="stop1652" />
      <stop
         style="stop-color:#000000;stop-opacity:1"
         offset="1"
         id="stop1654" />
    </linearGradient>
    <radialGradient
       xlink:href="#linearGradient1656"
       id="radialGradient1658"
       cx="14.984098"
       cy="15.27637"
       fx="14.984098"
       fy="15.27637"
       r="3.4738209"
       gradientTransform="matrix(0.0193974,-2.0325784,2.0905356,0.01990984,-17.32757,46.279011)"
       gradientUnits="userSpaceOnUse" />
  </defs>
  <g
     id="g367"
     style="display:inline">
    <g
       id="g363">
      <path
         d="m 41.6847,24.1196 c -0.7991,0 -1.5342,-0.1602 -2.2055,-0.4805 -0.6712,-0.3203 -1.2465,-0.7688 -1.758,-1.3454 -0.5114,-0.5765 -0.8949,-1.2492 -1.1826,-1.9859 -0.2877,-0.7688 -0.4156,-1.6016 -0.4156,-2.4985 0,-0.8969 0.1599,-1.7618 0.4475,-2.5306 0.2877,-0.7687 0.7032,-1.4414 1.2147,-2.05 0.5114,-0.5766 1.1187,-1.0571 1.8219,-1.3774 0.7032,-0.3203 1.4384,-0.4805 2.2694,-0.4805 0.7991,0 1.5023,0.1602 2.1416,0.5125 0.6393,0.3204 1.1507,0.8008 1.5662,1.4094 l 0.0959,-1.5695 h 2.9407 v 12.076 h -2.9407 l -0.0959,-1.7617 c -0.4155,0.6406 -0.9589,1.1531 -1.6621,1.5375 -0.6393,0.3524 -1.4064,0.5446 -2.2375,0.5446 z m 0.7672,-2.8829 c 0.5753,0 1.0867,-0.1602 1.5662,-0.4485 0.4475,-0.3203 0.7991,-0.7367 1.0868,-1.2492 0.2557,-0.5125 0.3835,-1.1211 0.3835,-1.7938 0,-0.6727 -0.1278,-1.2813 -0.3835,-1.7938 -0.2557,-0.5125 -0.6393,-0.9289 -1.0868,-1.2492 -0.4475,-0.3204 -0.9909,-0.4485 -1.5662,-0.4485 -0.5754,0 -1.0868,0.1602 -1.5663,0.4485 -0.4474,0.3203 -0.799,0.7367 -1.0867,1.2492 -0.2557,0.5125 -0.3836,1.1211 -0.3836,1.7938 0,0.6727 0.1279,1.2813 0.3836,1.7938 0.2557,0.5125 0.6393,0.9289 1.0867,1.2492 0.4795,0.2883 0.9909,0.4485 1.5663,0.4485 z M 53.6392,8.4559 c 0,0.35235 -0.0639,0.67268 -0.2238,0.92893 -0.1598,0.25626 -0.3835,0.48048 -0.6712,0.64067 -0.2877,0.1601 -0.6073,0.2242 -0.9269,0.2242 -0.3197,0 -0.6393,-0.0641 -0.927,-0.2242 C 50.6026,9.86531 50.3789,9.64109 50.2191,9.38483 50.0592,9.09654 49.9953,8.80825 49.9953,8.4559 c 0,-0.35235 0.0639,-0.67267 0.2238,-0.92893 0.1598,-0.28829 0.3835,-0.48048 0.6712,-0.64064 0.2877,-0.16016 0.6073,-0.22422 0.927,-0.22422 0.3196,0 0.6392,0.06406 0.9269,0.22422 0.2877,0.16016 0.5114,0.38439 0.6712,0.64064 0.1279,0.25626 0.2238,0.54455 0.2238,0.92893 z M 50.2191,23.7672 V 11.6911 h 3.1963 v 12.0761 z m 13.0092,0 V 6.72617 h 3.1964 v 6.50253 c 0.4475,-0.5766 0.9589,-1.0251 1.5982,-1.3774 0.6393,-0.3203 1.3425,-0.5125 2.1416,-0.5125 0.799,0 1.5342,0.1601 2.2054,0.4805 0.6713,0.3203 1.2466,0.7687 1.7581,1.3453 0.5114,0.5766 0.8949,1.2493 1.1826,1.986 0.2877,0.7688 0.4155,1.6016 0.4155,2.4985 0,0.8969 -0.1598,1.7618 -0.4474,2.5305 -0.2877,0.7688 -0.7032,1.4415 -1.2147,2.0501 -0.5114,0.5766 -1.1187,1.057 -1.8219,1.3774 -0.7032,0.3203 -1.4384,0.4804 -2.2694,0.4804 -0.7991,0 -1.5023,-0.1601 -2.1416,-0.5125 -0.6393,-0.3203 -1.1507,-0.8008 -1.5662,-1.4094 l -0.0959,1.5696 z m 6.169,-2.5305 c 0.5754,0 1.0868,-0.1602 1.5662,-0.4485 0.4475,-0.3203 0.7991,-0.7367 1.0868,-1.2492 0.2557,-0.5125 0.3836,-1.1211 0.3836,-1.7938 0,-0.6727 -0.1279,-1.2813 -0.3836,-1.7938 -0.2877,-0.5125 -0.6393,-0.9289 -1.0868,-1.2492 -0.4474,-0.3204 -0.9908,-0.4485 -1.5662,-0.4485 -0.5753,0 -1.0867,0.1602 -1.5662,0.4485 -0.4475,0.3203 -0.7991,0.7367 -1.0868,1.2492 -0.2557,0.5125 -0.3835,1.1211 -0.3835,1.7938 0,0.6727 0.1278,1.2813 0.3835,1.7938 0.2557,0.5125 0.6393,0.9289 1.0868,1.2492 0.4795,0.2883 0.9909,0.4485 1.5662,0.4485 z m 7.5435,2.5305 V 11.6911 h 2.9406 l 0.0959,1.5696 c 0.3516,-0.5766 0.8311,-1.025 1.4384,-1.3774 0.6073,-0.3523 1.3105,-0.5125 2.1096,-0.5125 0.895,0 1.6621,0.2242 2.3014,0.6407 0.6712,0.4164 1.1827,1.025 1.5343,1.7938 0.3516,0.7687 0.5433,1.6976 0.5433,2.7547 v 7.2392 H 84.708 v -6.8228 c 0,-0.8328 -0.1918,-1.5055 -0.5754,-1.986 -0.3835,-0.4804 -0.895,-0.7367 -1.5662,-0.7367 -0.4795,0 -0.895,0.0961 -1.2786,0.3203 -0.3516,0.2242 -0.6392,0.5125 -0.863,0.929 -0.2237,0.3843 -0.3196,0.8648 -0.3196,1.3453 v 6.9189 z m 12.5617,0 V 6.72617 h 3.1964 v 6.50253 c 0.4475,-0.5766 0.9589,-1.0251 1.5982,-1.3774 0.6393,-0.3203 1.3425,-0.5125 2.1416,-0.5125 0.7991,0 1.5342,0.1601 2.2055,0.4805 0.6712,0.3203 1.2465,0.7687 1.7578,1.3453 0.512,0.5766 0.895,1.2493 1.183,1.986 0.288,0.7688 0.415,1.6016 0.415,2.4985 0,0.8969 -0.159,1.7618 -0.447,2.5305 -0.288,0.7688 -0.703,1.4415 -1.215,2.0501 -0.5112,0.5766 -1.1185,1.057 -1.8217,1.3774 -0.7032,0.3203 -1.4384,0.4804 -2.2694,0.4804 -0.7991,0 -1.5023,-0.1601 -2.1416,-0.5125 -0.6393,-0.3203 -1.1507,-0.8008 -1.5662,-1.4094 l -0.0959,1.5696 z m 6.201,-2.5305 c 0.5753,0 1.0868,-0.1602 1.5662,-0.4485 0.4475,-0.3203 0.7991,-0.7367 1.0868,-1.2492 0.2557,-0.5125 0.3836,-1.1211 0.3836,-1.7938 0,-0.6727 -0.1279,-1.2813 -0.3836,-1.7938 -0.2557,-0.5125 -0.6393,-0.9289 -1.0868,-1.2492 -0.4475,-0.3204 -0.9909,-0.4485 -1.5662,-0.4485 -0.5754,0 -1.0868,0.1602 -1.5662,0.4485 -0.4475,0.3203 -0.7991,0.7367 -1.0868,1.2492 -0.2877,0.5125 -0.3836,1.1211 -0.3836,1.7938 0,0.6727 0.1279,1.2813 0.3836,1.7938 0.2557,0.5125 0.6393,0.9289 1.0868,1.2492 0.4794,0.2883 0.9589,0.4485 1.5662,0.4485 z"
         fill="#ff385c"
         id="path46" />
    </g>
    <ellipse
       style="display:inline;fill:url(#radialGradient1658);fill-opacity:1;stroke-width:1.54311"
       id="path1412"
       cx="14.952892"
       cy="15.544924"
       rx="3.4738209"
       ry="3.3474994" />
  </g>
  <path
     d="M 29.3864,22.7101 C 29.2429,22.3073 29.0752,21.9176 28.9157,21.5565 28.6701,21.0011 28.4129,20.4446 28.1641,19.9067 L 28.1444,19.864 C 25.9255,15.0589 23.5439,10.1881 21.0659,5.38701 L 20.9607,5.18316 C 20.7079,4.69289 20.4466,4.18596 20.1784,3.68786 19.8604,3.0575 19.4745,2.4636 19.0276,1.91668 18.5245,1.31651 17.8956,0.833822 17.1853,0.502654 16.475,0.171486 15.7005,-9.83959e-5 14.9165,4.23317e-8 14.1325,9.84805e-5 13.3581,0.171877 12.6478,0.503224 11.9376,0.834571 11.3088,1.31742 10.8059,1.91771 10.3595,2.46476 9.97383,3.05853 9.65572,3.68858 9.38521,4.19115 9.12145,4.70278 8.8664,5.19757 L 8.76872,5.38696 C 6.29061,10.1884 3.90903,15.0592 1.69015,19.8639 l -0.03233,0.0699 c -0.24448,0.5292 -0.49725,1.0764 -0.738747,1.6225 -0.159583,0.3608 -0.327064,0.7502 -0.470718,1.154 -0.4114487,1.1001 -0.542559,2.285 -0.3815452,3.4482 0.1707522,1.1755 0.6461982,2.2862 1.3792502,3.2219 0.73305,0.9357 1.69828,1.664 2.80008,2.1128 0.83221,0.3367 1.72204,0.5088 2.62002,0.5068 0.28208,-10e-5 0.56392,-0.0165 0.84411,-0.0491 1.13573,-0.1447 2.23109,-0.5143 3.22183,-1.087 1.2996,-0.7301 2.5831,-1.8001 3.9852,-3.3291 1.4021,1.529 2.6856,2.599 3.9852,3.3291 0.9907,0.5728 2.0861,0.9423 3.2218,1.087 0.2802,0.0326 0.5621,0.049 0.8442,0.0491 0.8979,0.002 1.7876,-0.1701 2.6198,-0.5068 1.1018,-0.4488 2.0671,-1.1771 2.8002,-2.1128 0.7331,-0.9357 1.2086,-2.0463 1.3794,-3.2219 0.1608,-1.1633 0.0297,-2.3482 -0.3815,-3.4484 z M 14.9173,24.377 c -1.7357,-2.2001 -2.8495,-4.2432 -3.2403,-5.956 -0.1601,-0.6418 -0.1979,-1.3079 -0.1114,-1.9637 0.0683,-0.4807 0.2449,-0.9397 0.5165,-1.3425 0.3342,-0.4334 0.7637,-0.7844 1.2553,-1.0259 0.4916,-0.2414 1.0322,-0.367 1.5801,-0.367 0.548,10e-5 1.0885,0.1257 1.5801,0.3673 0.4916,0.2415 0.921,0.5925 1.2552,1.0259 0.2716,0.403 0.4482,0.862 0.5165,1.3428 0.0863,0.6561 0.0484,1.3224 -0.112,1.9644 -0.3912,1.7126 -1.5047,3.7551 -3.24,5.9547 z m 12.8233,1.4919 c -0.1194,0.8219 -0.4519,1.5985 -0.9644,2.2527 -0.5126,0.6543 -1.1875,1.1636 -1.9579,1.4774 -0.779,0.3121 -1.6244,0.4227 -2.4576,0.3215 -0.8661,-0.1116 -1.7008,-0.3966 -2.4538,-0.8381 -1.1568,-0.6499 -2.3278,-1.6476 -3.6455,-3.1112 2.0977,-2.5866 3.4076,-4.9707 3.8926,-7.0942 0.2183,-0.893 0.2656,-1.8191 0.1395,-2.7295 -0.1144,-0.7843 -0.4056,-1.5325 -0.8516,-2.1882 -0.5225,-0.7074 -1.2041,-1.2825 -1.9899,-1.6788 -0.7859,-0.3963 -1.654,-0.6028 -2.5345,-0.6028 -0.8804,0 -1.7486,0.2064 -2.5345,0.6026 -0.7859,0.3962 -1.4675,0.9712 -1.99,1.6786 -0.44593,0.6555 -0.73709,1.4035 -0.8516,2.1876 -0.12616,0.9101 -0.0791,1.8357 0.13871,2.7284 0.48469,2.1244 1.79469,4.5091 3.89309,7.0965 -1.3177,1.4634 -2.4887,2.4611 -3.64551,3.1111 C 9.17468,29.5239 8.34007,29.809 7.47395,29.9205 6.64065,30.0217 5.79525,29.9111 5.0162,29.599 4.24581,29.2852 3.57092,28.7759 3.05838,28.1217 2.54585,27.4674 2.21345,26.6908 2.09411,25.8689 1.97932,25.0334 2.07701,24.1825 2.37818,23.3946 2.49266,23.0728 2.62663,22.757 2.7926,22.3818 3.0274,21.851 3.27657,21.3115 3.51759,20.7898 L 3.54996,20.7197 C 5.75643,15.9419 8.12481,11.0982 10.5894,6.32294 l 0.0981,-0.19011 c 0.2509,-0.48682 0.5104,-0.99016 0.7722,-1.47653 0.2504,-0.50129 0.5535,-0.97459 0.9042,-1.4119 0.3107,-0.37537 0.7007,-0.67759 1.142,-0.88506 0.4414,-0.20748 0.9232,-0.31508 1.411,-0.31512 0.4878,-4e-5 0.9697,0.10749 1.411,0.31489 0.4414,0.2074 0.8314,0.50956 1.1422,0.88488 0.3509,0.43698 0.6541,0.91012 0.9043,1.41139 0.2594,0.48204 0.5166,0.98085 0.7654,1.4632 l 0.1054,0.20457 c 2.4645,4.77475 4.8328,9.61835 7.0395,14.39695 l 0.0199,0.043 c 0.2452,0.5305 0.4987,1.0788 0.7374,1.6189 0.1662,0.3757 0.3004,0.6918 0.4146,1.0124 0.301,0.788 0.3987,1.6389 0.284,2.4745 z"
     fill="#ff385c"
     id="path44" />
  <path
     d="m 0.44818401,9.2899172 c 0.1435,0.4028 0.3112,0.7924998 0.4707,1.1535998 0.24559999,0.5554 0.50279999,1.111901 0.75159999,1.649801 l 0.0197,0.0427 c 2.2189,4.8051 4.6005,9.6759 7.0785,14.47699 l 0.1052,0.20385 c 0.2528,0.49027 0.5141,0.9972 0.7823,1.4953 0.318,0.63036 0.7039,1.22426 1.1508,1.77118 0.5031,0.60017 1.132,1.082858 1.8423,1.414026 0.7103,0.331168 1.4848,0.502752 2.2688,0.502654 0.784,-9.9e-5 1.5584,-0.171877 2.2687,-0.503224 0.7102,-0.331347 1.339,-0.814196 1.8419,-1.414486 0.4464,-0.54705 0.83207,-1.14082 1.15018,-1.77087 0.27051,-0.50257 0.53427,-1.0142 0.78932,-1.50899 l 0.09768,-0.18939 c 2.47811,-4.80144 4.85969,-9.67224 7.07857,-14.47694 l 0.03233,-0.0699 c 0.24448,-0.5292 0.49725,-1.076401 0.738747,-1.622501 0.159583,-0.3608 0.327064,-0.7501998 0.470718,-1.1539998 0.411449,-1.1001 0.542559,-2.285 0.381546,-3.4482 -0.170753,-1.1755 -0.646199,-2.2862 -1.379251,-3.2219 -0.73305,-0.9357 -1.69828,-1.66399998 -2.80008,-2.11279998 -0.83221,-0.3367 -1.72204,-0.50880002 -2.62002,-0.506800020174 C 22.686344,1.1719983e-4 22.404504,0.0165172 22.124314,0.0491172 c -1.13573,0.14470002 -2.23109,0.51430002 -3.22183,1.087 -1.2996,0.7301 -2.5831,1.8001 -3.9852,3.3291 -1.4021,-1.529 -2.6856,-2.599 -3.9852,-3.3291 -0.9907,-0.57279998 -2.0861,-0.94229998 -3.2218,-1.087 C 7.430084,0.0165172 7.148184,1.171998e-4 6.866084,1.719983e-5 5.968184,-0.0019828 5.078484,0.17011722 4.246284,0.50681722 c -1.1018,0.4488 -2.0671,1.17709998 -2.8002,2.11279998 -0.73309999,0.9357 -1.20859999,2.0463 -1.37939999,3.2219 -0.1608,1.1633 -0.0297,2.3482 0.3815,3.4484 z m 14.46909999,-1.6669 c 1.7357,2.2001 2.8495,4.2432008 3.2403,5.9560008 0.1601,0.6418 0.1979,1.3079 0.1114,1.9637 -0.0683,0.4807 -0.2449,0.9397 -0.5165,1.3425 -0.3342,0.4334 -0.7637,0.7844 -1.2553,1.0259 -0.4916,0.2414 -1.0322,0.367 -1.5801,0.367 -0.548,-10e-5 -1.0885,-0.1257 -1.5801,-0.3673 -0.4916,-0.2415 -0.921,-0.5925 -1.2552,-1.0259 -0.2716,-0.403 -0.4482,-0.862 -0.5165,-1.3428 -0.0863,-0.6561 -0.0484,-1.3224 0.112,-1.9644 0.3912,-1.7126 1.5047,-3.7551008 3.24,-5.9547008 z m -12.8233,-1.4919 c 0.1194,-0.8219 0.4519,-1.5985 0.9644,-2.2527 0.5126,-0.6543 1.1875,-1.1636 1.9579,-1.4774 0.779,-0.3121 1.6244,-0.4227 2.4576,-0.3215 0.8661,0.1116 1.7008,0.3966 2.4538,0.8381 1.1568,0.6499 2.3278,1.6476 3.6455,3.1112 -2.0977,2.5866 -3.4076,4.9706998 -3.8926,7.0942008 -0.2183,0.893 -0.2656,1.8191 -0.1395,2.7295 0.1144,0.7843 0.4056,1.5325 0.8516,2.1882 0.5225,0.7074 1.2041,1.2825 1.9899,1.6788 0.7859,0.3963 1.654,0.6028 2.5345,0.6028 0.8804,0 1.7486,-0.2064 2.5345,-0.6026 0.7859,-0.3962 1.4675,-0.9712 1.99,-1.6786 0.44593,-0.6555 0.73709,-1.4035 0.8516,-2.1876 0.12616,-0.9101 0.0791,-1.8357 -0.13871,-2.7284 -0.48469,-2.124401 -1.79469,-4.5091008 -3.89309,-7.0965008 1.3177,-1.4634 2.4887,-2.4611 3.64551,-3.1111 0.75301,-0.4414 1.58762,-0.7265 2.45374,-0.838 0.8333,-0.1012 1.6787,0.0094 2.45775,0.3215 0.77039,0.3138 1.44528,0.8231 1.95782,1.4773 0.51253,0.6543 0.84493,1.4309 0.96427,2.2528 0.11479,0.8355 0.0171,1.6864 -0.28407,2.4743 -0.11448,0.3218 -0.24845,0.6376 -0.41442,1.0128 -0.2348,0.5307998 -0.48397,1.0702998 -0.72499,1.5920008 l -0.03237,0.0701 c -2.20647,4.7778 -4.57485,9.6215 -7.03944,14.39676 l -0.0981,0.19011 c -0.2509,0.48682 -0.5104,0.99016 -0.7722,1.47653 -0.2504,0.50129 -0.5535,0.97459 -0.9042,1.4119 -0.3107,0.37537 -0.7007,0.67759 -1.142,0.88506 -0.4414,0.20748 -0.9232,0.31508 -1.411,0.31512 -0.4878,4e-5 -0.9697,-0.10749 -1.411,-0.31489 -0.4414,-0.2074 -0.8314,-0.50956 -1.1422,-0.88488 -0.3509,-0.43698 -0.6541,-0.91012 -0.9043,-1.41139 -0.2594,-0.48204 -0.5166,-0.98085 -0.7654,-1.4632 l -0.1054,-0.20457 c -2.4645,-4.77475 -4.8328,-9.61835 -7.0395,-14.39695 l -0.0199,-0.043 c -0.2452,-0.530501 -0.4987,-1.078801 -0.7374,-1.6189008 -0.1662,-0.3757 -0.3004,-0.6918 -0.4146,-1.0124 -0.301,-0.788 -0.3987,-1.6389 -0.284,-2.4745 z"
     fill="#ff385c"
     id="path212"
     style="display:inline" />
</svg>
