<svg xmlns="http://www.w3.org/2000/svg" xmlns="https://boxy-svg.com" width="102" height="32" style="display:block"><defs><style fonts="Manrope">@import url(https://fonts.googleapis.com/css2?family=Manrope%3Aital%2Cwght%400%2C200%3B0%2C300%3B0%2C400%3B0%2C500%3B0%2C600%3B0%2C700%3B0%2C800&amp;display=swap);</style></defs><ellipse cx="14.924" cy="16.037" rx="4.75" ry="2.93" style="stroke:#000;fill:#212121"/><path fill="#FF385C" d="M29.386 22.71a16.848 16.848 0 0 0-.47-1.153c-.246-.556-.503-1.112-.752-1.65l-.02-.043a367.853 367.853 0 0 0-7.078-14.477l-.105-.204c-.253-.49-.514-.997-.783-1.495a9.684 9.684 0 0 0-1.15-1.771A5.353 5.353 0 0 0 17.185.503a5.372 5.372 0 0 0-6.379 1.415 9.771 9.771 0 0 0-1.15 1.771 88.49 88.49 0 0 0-.79 1.509l-.097.189A369.293 369.293 0 0 0 1.69 19.864l-.032.07a108.3 108.3 0 0 0-.739 1.622c-.16.361-.327.751-.471 1.154a7.078 7.078 0 0 0-.381 3.448 6.827 6.827 0 0 0 4.179 5.335 6.938 6.938 0 0 0 2.62.507c.282 0 .564-.016.844-.049a8.614 8.614 0 0 0 3.222-1.087c1.3-.73 2.583-1.8 3.985-3.329 1.402 1.529 2.686 2.599 3.986 3.329a8.61 8.61 0 0 0 3.221 1.087c.281.033.562.049.845.049a6.837 6.837 0 0 0 5.42-2.62 6.81 6.81 0 0 0 1.379-3.222 7.067 7.067 0 0 0-.382-3.448Zm-14.469 1.667c-1.735-2.2-2.849-4.243-3.24-5.956a5.26 5.26 0 0 1-.111-1.964c.068-.48.245-.939.516-1.342a3.567 3.567 0 0 1 2.836-1.393 3.589 3.589 0 0 1 2.835 1.393c.271.403.448.862.516 1.343a5.24 5.24 0 0 1-.112 1.964c-.391 1.713-1.504 3.755-3.24 5.955Zm12.824 1.492a4.77 4.77 0 0 1-2.923 3.73 4.98 4.98 0 0 1-2.457.321 6.474 6.474 0 0 1-2.454-.838c-1.157-.65-2.328-1.647-3.646-3.111 2.098-2.586 3.408-4.971 3.893-7.094a7.291 7.291 0 0 0 .14-2.729 5.244 5.244 0 0 0-.852-2.189 5.635 5.635 0 0 0-1.99-1.679 5.632 5.632 0 0 0-7.059 1.679 5.236 5.236 0 0 0-.852 2.187 7.29 7.29 0 0 0 .139 2.729c.485 2.124 1.795 4.509 3.893 7.096-1.317 1.464-2.488 2.461-3.645 3.111a6.474 6.474 0 0 1-2.454.838 4.984 4.984 0 0 1-2.458-.321 4.768 4.768 0 0 1-2.922-3.73 5.013 5.013 0 0 1 .284-2.474c.115-.322.249-.638.415-1.013.234-.531.484-1.071.725-1.592l.032-.07a367.292 367.292 0 0 1 7.039-14.397l.099-.19c.25-.487.51-.99.772-1.477.25-.501.553-.974.904-1.412a3.322 3.322 0 0 1 3.964-.885c.441.208.831.51 1.142.885.351.437.654.91.904 1.411.26.482.517.981.766 1.464l.105.204a366.631 366.631 0 0 1 7.04 14.397l.02.043c.245.531.498 1.079.737 1.619.166.376.3.692.415 1.012a5.03 5.03 0 0 1 .284 2.475Z"/><path fill="#FF385C" d="M.449 9.29c.143.403.311.792.47 1.153.246.556.503 1.112.752 1.65l.02.043c2.219 4.805 4.6 9.676 7.078 14.477l.105.204c.253.49.514.997.783 1.495.318.63.704 1.224 1.15 1.771A5.363 5.363 0 0 0 14.919 32a5.368 5.368 0 0 0 4.11-1.918 9.718 9.718 0 0 0 1.15-1.771 88.49 88.49 0 0 0 .79-1.509l.097-.189a369.293 369.293 0 0 0 7.079-14.477l.032-.07a108.3 108.3 0 0 0 .739-1.622c.16-.361.327-.751.471-1.154.411-1.1.542-2.285.381-3.449A6.827 6.827 0 0 0 25.589.507 6.938 6.938 0 0 0 22.969 0c-.282 0-.564.016-.844.049a8.614 8.614 0 0 0-3.222 1.087c-1.3.73-2.583 1.8-3.985 3.329-1.402-1.529-2.686-2.599-3.985-3.329A8.62 8.62 0 0 0 7.711.049 7.213 7.213 0 0 0 6.867 0a6.938 6.938 0 0 0-2.62.507 6.827 6.827 0 0 0-4.18 5.334A7.07 7.07 0 0 0 .449 9.29Zm14.469-1.667c1.735 2.2 2.849 4.243 3.24 5.956a5.26 5.26 0 0 1 .111 1.964c-.068.48-.244.939-.516 1.342a3.567 3.567 0 0 1-2.835 1.393 3.589 3.589 0 0 1-2.836-1.393 3.213 3.213 0 0 1-.516-1.343 5.24 5.24 0 0 1 .112-1.964c.391-1.713 1.504-3.755 3.24-5.955ZM2.094 6.131a4.77 4.77 0 0 1 2.923-3.73 4.992 4.992 0 0 1 2.457-.322 6.493 6.493 0 0 1 2.454.839c1.157.649 2.328 1.647 3.646 3.111-2.098 2.586-3.408 4.97-3.893 7.094a7.27 7.27 0 0 0-.139 2.729c.114.785.405 1.533.851 2.189a5.622 5.622 0 0 0 4.525 2.281 5.626 5.626 0 0 0 4.524-2.281 5.235 5.235 0 0 0 .852-2.188 7.286 7.286 0 0 0-.139-2.728c-.485-2.124-1.795-4.509-3.893-7.096 1.318-1.464 2.489-2.462 3.645-3.112a6.509 6.509 0 0 1 2.454-.838 4.996 4.996 0 0 1 2.458.322 4.768 4.768 0 0 1 2.922 3.73 5.015 5.015 0 0 1-.284 2.474c-.115.322-.249.638-.415 1.013-.234.531-.484 1.07-.725 1.592l-.032.07a367.292 367.292 0 0 1-7.039 14.397l-.098.19c-.251.487-.511.99-.773 1.477-.25.501-.553.974-.904 1.412a3.322 3.322 0 0 1-3.964.885 3.327 3.327 0 0 1-1.142-.885 7.85 7.85 0 0 1-.904-1.411c-.26-.482-.517-.981-.766-1.464l-.105-.204A367.322 367.322 0 0 1 3.55 11.28l-.02-.043c-.245-.531-.498-1.079-.737-1.619-.166-.376-.3-.692-.415-1.012a5.03 5.03 0 0 1-.284-2.475Z"/><circle cx="15" cy="16" r="1.5" style="paint-order:stroke;stroke:rgba(159,0,0,.8);fill:rgba(255,87,87,.67)"/><text x="32.801" y="22.862" style="fill:#ff395c;font-family:Manrope;font-size:22px;font-weight:700;letter-spacing:-1.5px;white-space:pre">aibnb</text></svg>
